<?xml version="1.0" encoding="iso-8859-1"?>
<!-- Generator: Adobe Illustrator 19.0.0, SVG Export Plug-In . SVG Version: 6.00 Build 0)  -->
<svg version="1.1" id="Layer_1" xmlns="http://www.w3.org/2000/svg" xmlns:xlink="http://www.w3.org/1999/xlink" x="0px" y="0px"
	 viewBox="0 0 512 512" style="enable-background:new 0 0 512 512;" xml:space="preserve">
<path style="fill:#FF3501;" d="M98.462,206.769v-43.761c0-12.367,10.061-22.427,22.427-22.427s22.427,10.061,22.427,22.427v43.761
	H98.462z"/>
<path style="fill:#CD2900;" d="M134.542,145.257c-3.786-2.919-8.514-4.676-13.653-4.676c-12.367,0-22.427,10.061-22.427,22.427
	v43.761h27.307v-43.761C125.768,155.783,129.219,149.361,134.542,145.257z"/>
<path style="fill:#720016;" d="M5.721,404.239c-3.16,0-5.721-2.561-5.721-5.721v-88.562c0-8.955,7.259-16.213,16.213-16.213H48.98
	c3.16,0,5.721-2.561,5.721-5.721v-97.514c0-3.407,2.761-6.168,6.168-6.168h141.822c3.16,0,5.721,2.561,5.721,5.721v208.457
	c0,3.16-2.561,5.721-5.721,5.721H5.721z"/>
<path style="fill:#600012;" d="M32.274,392.373v-82.416c0-8.955,7.259-16.213,16.213-16.213h32.767c3.16,0,5.721-2.561,5.721-5.721
	v-86.715c0-9.356,7.611-16.967,16.967-16.967H60.869c-3.407,0-6.168,2.761-6.168,6.168v97.514c0,3.16-2.561,5.721-5.721,5.721
	H16.213C7.259,293.744,0,301.002,0,309.957v88.562c0,3.16,2.561,5.721,5.721,5.721h38.421
	C37.597,404.239,32.274,398.916,32.274,392.373z"/>
<path style="fill:#AC2201;" d="M504.342,370.325V262.017v-1.094V40.413c0-5.099-4.134-9.234-9.234-9.234H195.216
	c-5.099,0-9.234,4.134-9.234,9.234v275.211v1.094v87.521h136.488h100.083h53.402c13.926,0,25.693-9.979,27.978-23.727
	L504.342,370.325z"/>
<path style="fill:#891D00;" d="M218.256,315.624V59.565c0-15.677,12.709-28.385,28.385-28.385h-51.425
	c-5.099,0-9.234,4.134-9.234,9.234v275.211v1.094v87.521h32.274v-87.521V315.624z"/>
<path style="fill:#806749;" d="M503.795,132.923H479.18V83.692h24.615c4.533,0,8.205-3.674,8.205-8.205s-3.673-8.205-8.205-8.205
	H317.812c-4.533,0-8.205,3.674-8.205,8.205s3.673,8.205,8.205,8.205h13.675v49.231h-13.675c-4.533,0-8.205,3.674-8.205,8.205
	c0,4.531,3.673,8.205,8.205,8.205h185.983c4.533,0,8.205-3.674,8.205-8.205C512,136.597,508.327,132.923,503.795,132.923z
	 M462.769,132.923h-27.35V83.692h27.35V132.923z M419.009,132.923h-27.35V83.692h27.35V132.923z M347.897,83.692h27.35v49.231
	h-27.35V83.692z"/>
<path style="fill:#ECE5DD;" d="M504.342,262.017H330.518c-7.888,0-15.202,4.12-19.291,10.866l-19.65,32.422
	c-4.088,6.746-11.403,10.866-19.291,10.866h-86.304v54.701h101.078c12.377,0,23.934-6.186,30.799-16.482l26.076-39.113
	c4.184-6.275,11.227-10.045,18.769-10.045h141.09L504.342,262.017z"/>
<polygon style="fill:#C6C5CB;" points="218.256,316.718 218.256,316.171 185.983,316.171 185.983,316.718 185.983,370.872 
	218.256,370.872 "/>
<path style="fill:#ECE5DD;" d="M252.171,141.675c-18.399,0-33.368-14.968-33.368-33.368s14.968-33.368,33.368-33.368
	c18.398,0,33.368,14.968,33.368,33.368S270.569,141.675,252.171,141.675z"/>
<circle style="fill:#2E2D30;" cx="252.171" cy="108.308" r="10.94"/>
<path style="fill:#ECE5DD;" d="M98.883,294.838c-6.264,0-11.361-5.097-11.361-11.361v-54.951c0-6.265,5.097-11.361,11.361-11.361
	h44.011c6.265,0,11.361,5.097,11.361,11.361v54.951c0,6.265-5.097,11.361-11.361,11.361H98.883z"/>
<path style="fill:#720016;" d="M142.769,318.906h-21.88c-4.531,0-8.205,3.674-8.205,8.205c0,4.531,3.674,8.205,8.205,8.205h21.88
	c4.531,0,8.205-3.674,8.205-8.205C150.974,322.58,147.301,318.906,142.769,318.906z"/>
<g>
	<path style="fill:#2E2D30;" d="M252.171,67.282c-22.622,0-41.026,18.404-41.026,41.026v46.496h-2.735
		c-4.531,0-8.205,3.674-8.205,8.205s3.674,8.205,8.205,8.205h2.735v13.675c0,4.531,3.674,8.205,8.205,8.205s8.205-3.674,8.205-8.205
		v-13.675h2.735c4.531,0,8.205-3.674,8.205-8.205s-3.674-8.205-8.205-8.205h-2.735v-13.697c6.862,5.163,15.386,8.227,24.615,8.227
		c9.229,0,17.754-3.064,24.615-8.227v10.962c0,4.531,3.673,8.205,8.205,8.205c4.533,0,8.205-3.674,8.205-8.205v-43.761
		C293.197,85.686,274.793,67.282,252.171,67.282z M252.171,132.923c-13.573,0-24.615-11.042-24.615-24.615
		s11.042-24.615,24.615-24.615c13.572,0,24.615,11.042,24.615,24.615S265.743,132.923,252.171,132.923z"/>
	<path style="fill:#2E2D30;" d="M372.513,480.821c-30.464,0-55.248-24.784-55.248-55.248c0-30.464,24.784-55.248,55.248-55.248
		c30.464,0,55.248,24.784,55.248,55.248C427.761,456.037,402.977,480.821,372.513,480.821z"/>
</g>
<path style="fill:#3E3D43;" d="M372.513,447.453c-12.065,0-21.88-9.815-21.88-21.88c0-12.065,9.815-21.88,21.88-21.88
	c12.065,0,21.88,9.816,21.88,21.88C394.393,437.638,384.578,447.453,372.513,447.453z"/>
<path style="fill:#2E2D30;" d="M98.462,480.821c-30.464,0-55.248-24.784-55.248-55.248c0-30.464,24.784-55.248,55.248-55.248
	s55.248,24.784,55.248,55.248C153.709,456.037,128.926,480.821,98.462,480.821z"/>
<path style="fill:#3E3D43;" d="M98.462,447.453c-12.065,0-21.88-9.815-21.88-21.88c0-12.065,9.816-21.88,21.88-21.88
	s21.88,9.816,21.88,21.88C120.342,437.638,110.526,447.453,98.462,447.453z"/>
<path style="fill:#600012;" d="M142.769,318.906h-21.88c-4.531,0-8.205,3.674-8.205,8.205c0,4.531,3.674,8.205,8.205,8.205h21.88
	c4.531,0,8.205-3.674,8.205-8.205C150.974,322.58,147.301,318.906,142.769,318.906z"/>
<g>
</g>
<g>
</g>
<g>
</g>
<g>
</g>
<g>
</g>
<g>
</g>
<g>
</g>
<g>
</g>
<g>
</g>
<g>
</g>
<g>
</g>
<g>
</g>
<g>
</g>
<g>
</g>
<g>
</g>
</svg>
